<svg aria-hidden="true" style="position: absolute; width: 0; height: 0; overflow: hidden;" version="1.1" xmlns="http://www.w3.org/2000/svg" xmlns:xlink="http://www.w3.org/1999/xlink">
<defs>
<symbol id="icon-footer3" viewBox="0 0 32 32">
<path fill="#0077b5" style="fill: var(--color1, #0077b5)" d="M29.6 0h-27.2c-1.28 0-2.4 0.965-2.4 2.251v27.499c0 1.285 1.12 2.251 2.4 2.251h27.2c1.28 0 2.4-0.965 2.4-2.251v-27.499c0-1.125-1.12-2.251-2.4-2.251zM9.44 27.497h-4.8v-15.276h4.8v15.276zM7.040 9.97c-1.6 0-2.72-1.287-2.72-2.734s1.28-2.732 2.72-2.732 2.72 1.285 2.72 2.732c0.16 1.609-1.12 2.734-2.72 2.734zM27.2 27.499h-4.8v-7.397c0-1.769 0-4.021-2.4-4.021s-2.88 1.931-2.88 4.021v7.556h-4.8v-15.273h4.48v2.087c0.64-1.287 2.24-2.412 4.48-2.412 4.8 0 5.76 3.216 5.76 7.236v8.201h0.16z"></path>
</symbol>
<symbol id="icon-footer2" viewBox="0 0 32 32">
<path fill="#e94b88" style="fill: var(--color2, #e94b88)" d="M16 32c-8.822 0-16-7.178-16-16s7.178-16 16-16 16 7.178 16 16-7.178 16-16 16zM29.493 18.19c-0.467-0.147-4.229-1.27-8.512-0.584 1.787 4.912 2.515 8.912 2.656 9.744 3.067-2.090 5.219-5.327 5.845-9.080l0.011-0.080zM21.338 28.602c-0.203-1.2-0.997-5.378-2.915-10.365l-0.090 0.032c-7.709 2.685-10.475 8.032-10.72 8.534 2.29 1.798 5.213 2.884 8.391 2.884 1.927 0 3.76-0.399 5.422-1.12l-0.088 0.034zM5.846 25.158c0.31-0.53 4.061-6.739 11.109-9.018 0.179-0.058 0.358-0.112 0.539-0.163-0.467-1.062-0.838-1.823-1.229-2.573l0.12 0.253c-6.824 2.045-13.446 1.958-14.045 1.947-0.004 0.128-0.007 0.278-0.007 0.429 0 3.517 1.334 6.722 3.523 9.138l-0.010-0.012zM2.624 13.222c0.611 0.008 6.242 0.032 12.634-1.666-1.762-3.093-3.437-5.674-5.24-8.156l0.174 0.252c-3.837 1.84-6.644 5.305-7.551 9.477l-0.017 0.091zM12.8 2.734c1.702 2.294 3.39 4.908 4.908 7.63l0.19 0.37c4.861-1.821 6.918-4.586 7.163-4.936-2.399-2.138-5.579-3.444-9.064-3.444-1.135 0-2.238 0.139-3.292 0.4l0.094-0.020zM26.581 7.379c-0.288 0.389-2.579 3.325-7.632 5.387 0.321 0.622 0.724 1.505 1.097 2.405l0.103 0.28c4.549-0.571 9.067 0.346 9.518 0.44-0.029-3.245-1.19-6.213-3.107-8.535l0.018 0.023z"></path>
</symbol>
<symbol id="icon-footer1" viewBox="0 0 32 32">
<path fill="#26a7de" style="fill: var(--color3, #26a7de)" d="M29.333 9.163c-0.92 0.395-1.971 0.657-3.152 0.788 1.051-0.657 1.969-1.707 2.364-2.889-1.051 0.656-2.233 1.051-3.416 1.313-0.92-1.051-2.364-1.708-3.94-1.708-3.021 0-5.387 2.364-5.387 5.253 0 0.395 0 0.789 0.132 1.184-4.468-0.264-8.408-2.365-11.167-5.517-0.493 0.735-0.787 1.64-0.787 2.614 0 0.004 0 0.009 0 0.013v-0.001c0 1.84 0.919 3.416 2.364 4.467-0.92 0-1.708-0.263-2.496-0.657v0.132c0 2.627 1.839 4.729 4.333 5.253-0.393 0.133-0.919 0.133-1.444 0.133-0.393 0-0.656 0-1.051-0.133 0.686 2.146 2.66 3.674 4.991 3.68h0.001c-1.84 1.444-4.204 2.232-6.7 2.232-0.393 0-0.92 0-1.313-0.131 2.364 1.576 5.253 2.364 8.276 2.364 9.853 0 15.369-8.144 15.369-15.107v-0.657c1.445-0.656 2.364-1.576 3.021-2.627z"></path>
</symbol>
<symbol id="icon-ex6" viewBox="0 0 64 32">
<path fill="#8491a0" style="fill: var(--color4, #8491a0)" d="M44.576 10.459c0.235 0 0.466-0.015 0.692-0.046l8.853 12.876c-0.822 0.92-1.325 2.141-1.325 3.479 0 2.888 2.341 5.23 5.23 5.23s5.23-2.341 5.23-5.23c0-2.888-2.341-5.23-5.23-5.23-0.689 0-1.346 0.133-1.948 0.375l0.035-0.012-8.498-12.416c1.333-0.96 2.191-2.508 2.191-4.257 0-2.888-2.341-5.23-5.23-5.23s-5.23 2.341-5.23 5.23c0 1.815 0.924 3.413 2.328 4.351l0.019 0.012-8.421 12.213c-0.492-0.169-1.058-0.266-1.647-0.266-0.513 0-1.009 0.074-1.477 0.212l0.037-0.009-8.375-12.149c1.422-0.95 2.346-2.548 2.346-4.363 0-2.888-2.341-5.23-5.23-5.23s-5.23 2.341-5.23 5.23c0 1.741 0.851 3.283 2.159 4.233l0.015 0.010-8.613 12.475c-0.599-0.259-1.297-0.41-2.030-0.41-2.888 0-5.23 2.341-5.23 5.23s2.341 5.23 5.23 5.23c2.888 0 5.23-2.341 5.23-5.23 0-1.263-0.448-2.422-1.194-3.326l0.007 0.009 8.963-13.038c0.207 0.029 0.446 0.045 0.689 0.045 0.165 0 0.328-0.008 0.489-0.022l-0.021 0.002 8.67 12.504c-1.026 0.957-1.666 2.318-1.666 3.828 0 2.888 2.341 5.23 5.23 5.23s5.23-2.341 5.23-5.23c0-1.437-0.579-2.738-1.517-3.683l0 0 8.771-12.648c0.154 0.012 0.309 0.020 0.466 0.020z"></path>
</symbol>
<symbol id="icon-ex5" viewBox="0 0 197 32">
<path fill="#8491a0" style="fill: var(--color4, #8491a0)" d="M10.194 11.141c0-0.422-0.143-0.786-0.43-1.092-0.258-0.283-0.629-0.46-1.040-0.46-0.010 0-0.019 0-0.029 0l0.001-0c-1.338 0-2.729 1.425-4.173 4.274-1.338 2.574-2.007 4.621-2.007 6.139 0 1.373 0.467 2.058 1.402 2.058 1.316 0 2.633-1.33 3.949-3.988 0.827-1.641 1.547-3.558 2.059-5.559l0.044-0.201c0.148-0.591 0.224-0.982 0.224-1.171zM14.047 19.117v0.064c-0.016 0.027-0.027 0.059-0.031 0.094l-0 0.001c-0.445 1.075-1.030 1.994-1.752 2.753-0.913 0.929-1.869 1.393-2.867 1.393-1.147 0-1.719-0.685-1.719-2.057 0-0.358 0.031-0.707 0.095-1.044-1.422 2.068-2.972 3.101-4.652 3.101-0.998 0-1.783-0.39-2.355-1.17-0.512-0.676-0.765-1.53-0.765-2.565 0-2.109 0.924-4.442 2.771-6.995 1.975-2.701 3.981-4.051 6.020-4.051 0.87 0 1.604 0.38 2.199 1.139 0.169-0.632 0.509-0.948 1.019-0.948 0.977 0 1.466 0.169 1.466 0.506 0 0.064-0.243 0.823-0.732 2.278-1.892 5.635-2.835 8.874-2.835 9.718 0 0.402 0.147 0.602 0.445 0.602 0.594 0 1.28-0.538 2.054-1.614 0.776-1.075 1.174-1.614 1.194-1.614 0.298 0 0.447 0.137 0.447 0.411zM30.23 6.456c0-1.772-0.43-3.044-1.289-3.813-0.861-0.771-2.163-1.146-3.904-1.124-1.358 0-2.038 0.294-2.038 0.886v9.020c0.786 0.128 1.358 0.189 1.72 0.189 3.695-0.019 5.531-1.741 5.51-5.158zM33.989 6.456c0 4.22-2.879 6.33-8.632 6.33-0.745 0-1.53-0.041-2.358-0.125v5.635c0 1.984 0.351 3.123 1.051 3.418 0.042 0.022 0.499 0.159 1.37 0.412 0.509 0.127 0.754 0.294 0.733 0.506-0.022 0.253-0.192 0.38-0.511 0.38h-8.664c-0.317 0-0.488-0.127-0.508-0.38-0.022-0.21 0.221-0.379 0.732-0.506 0.87-0.253 1.326-0.39 1.37-0.412 0.7-0.294 1.050-1.434 1.050-3.418v-12.978c0-1.984-0.349-3.123-1.050-3.418-0.044-0.022-0.499-0.159-1.37-0.412-0.511-0.127-0.755-0.294-0.732-0.507 0.020-0.253 0.191-0.379 0.508-0.379h9.334c2.209 0 3.992 0.453 5.35 1.361 1.551 1.011 2.327 2.51 2.327 4.494zM41.876 22.63c-0.022 0.253-0.192 0.38-0.511 0.38h-6.88c-0.32 0-0.489-0.127-0.509-0.38-0.022-0.168 0.223-0.316 0.732-0.443 0.658-0.147 1.115-0.305 1.37-0.474s0.393-0.634 0.415-1.394v-16.617c0-0.568-0.054-0.945-0.16-1.124s-0.425-0.269-0.955-0.269c-0.808 0-1.211-0.127-1.211-0.38 0-0.273 0.255-0.463 0.764-0.57 1.233-0.253 2.442-0.602 3.633-1.043 0.147-0.044 0.265-0.064 0.349-0.064 0.212 0 0.339 0.122 0.383 0.364 0.042 0.243 0.064 0.755 0.064 1.536v16.141c0 2.132 0.137 3.272 0.413 3.419 0.148 0.086 0.605 0.223 1.37 0.412 0.509 0.148 0.754 0.316 0.733 0.506zM51.273 18.784v-3.528c-1.572 0.294-2.751 0.652-3.535 1.070-1.275 0.716-1.911 1.702-1.911 2.962 0 0.671 0.196 1.212 0.589 1.622s0.928 0.614 1.609 0.614c0.849 0 1.603-0.264 2.262-0.788 0.658-0.525 0.986-1.176 0.986-1.952zM57.102 20.827c-0.573 1.626-1.572 2.437-2.995 2.437-1.528 0-2.463-0.768-2.802-2.31-1.615 1.541-3.25 2.31-4.906 2.31-1.062 0-1.901-0.305-2.516-0.915s-0.924-1.443-0.924-2.496c0-1.915 1.041-3.346 3.123-4.293 1.188-0.526 2.918-0.937 5.192-1.233 0.064-1.999-0.096-3.293-0.479-3.884-0.317-0.526-1.039-0.778-2.166-0.758-0.934 0.022-1.55 0.316-1.848 0.887l-0.444 1.582c-0.212 0.57-0.669 0.855-1.371 0.855-0.934 0-1.4-0.401-1.4-1.203 0-1.034 0.646-1.836 1.942-2.406 0.998-0.422 2.125-0.632 3.377-0.632 3.441 0.020 5.161 1.199 5.161 3.537v7.799c0 1.137 0.319 1.695 0.955 1.673 0.425 0 0.781-0.227 1.068-0.681 0.287-0.453 0.494-0.68 0.622-0.68 0 0 0.001 0 0.001 0 0.131 0 0.249 0.054 0.333 0.142l0 0c0.096 0.095 0.122 0.186 0.079 0.269zM69.601 20.838c-1.381 1.786-3.080 2.678-5.097 2.678-2.103 0-3.78-0.666-5.033-1.997-1.254-1.331-1.88-3.067-1.88-5.203 0-2.135 0.696-3.932 2.086-5.391 1.391-1.459 3.159-2.179 5.304-2.158 0.977 0 1.933 0.211 2.867 0.634 1.169 0.527 1.752 1.224 1.752 2.089 0 0.823-0.425 1.234-1.275 1.234-0.509 0-0.908-0.242-1.194-0.727-0.287-0.486-0.557-0.972-0.812-1.457-0.383-0.506-0.914-0.76-1.594-0.76-1.402 0-2.463 0.678-3.185 2.031-0.553 1.079-0.828 2.391-0.828 3.935 0 1.692 0.339 3.122 1.019 4.284 0.806 1.439 1.985 2.158 3.535 2.158 0.892 0 1.741-0.32 2.548-0.96 0.17-0.15 0.69-0.695 1.562-1.633 0.106-0.108 0.201-0.161 0.285-0.161 0.192 0 0.288 0.16 0.288 0.479 0 0.32-0.118 0.627-0.351 0.925zM81.094 13.51c-0.128-2.508-1.137-3.75-3.026-3.73-2.039 0.022-3.26 1.477-3.665 4.369h3.982c1.827 0 2.729-0.214 2.708-0.639zM84.12 14.844c0 0.233-0.116 0.37-0.351 0.412h-9.492c-0.022 0.294-0.032 0.517-0.032 0.666 0 1.731 0.319 3.132 0.956 4.209 0.806 1.329 2.016 1.994 3.631 1.994 1.062 0 1.964-0.232 2.707-0.696 0.384-0.253 0.945-0.771 1.688-1.551 0.072-0.077 0.174-0.125 0.287-0.125h0c0.275 0 0.415 0.125 0.415 0.379 0 0.084-0.032 0.179-0.096 0.284-1.211 2.048-3.123 3.059-5.734 3.040-2.081-0.023-3.758-0.691-5.032-2.010-1.275-1.318-1.912-3.003-1.912-5.050 0-2.109 0.627-3.892 1.879-5.349 1.339-1.54 3.048-2.3 5.129-2.278 1.592 0 2.92 0.474 3.982 1.425 1.295 1.139 1.953 2.689 1.975 4.652zM102.787 2.058c0 0.002 0 0.004 0 0.006 0 0.324-0.128 0.617-0.336 0.833l0-0c-0.196 0.223-0.482 0.364-0.801 0.364-0.004 0-0.008-0-0.011-0h0.001c-0.509 0-0.914-0.369-1.211-1.107s-0.69-1.108-1.178-1.108c-1.105 0-1.976 0.646-2.612 1.938-0.234 0.445-0.605 1.558-1.116 3.337l-0.858 2.986h3.151c0.276 0 0.416 0.131 0.416 0.392 0 0.435-0.236 0.653-0.703 0.653h-3.121l-3.186 11.93c-0.744 2.778-1.476 4.828-2.198 6.154-1.317 2.376-2.963 3.566-4.938 3.566-0.742 0-1.402-0.211-1.975-0.632-0.573-0.422-0.86-0.982-0.86-1.678 0-0.95 0.431-1.425 1.289-1.425 0.589 0 0.955 0.232 1.101 0.696 0.042 0.169 0.064 0.622 0.064 1.361 0 0.486 0.224 0.73 0.671 0.73 0.896 0 1.686-0.803 2.368-2.404 0.298-0.695 0.671-1.885 1.117-3.571l3.904-14.726h-3.315c-0.189 0-0.285-0.12-0.285-0.358 0-0.458 0.201-0.686 0.607-0.686h3.185c0.849-2.723 1.677-4.716 2.483-5.981 1.381-2.217 3.090-3.324 5.129-3.324 0.744 0 1.434 0.159 2.071 0.474 0.764 0.38 1.147 0.909 1.147 1.585zM105.847 12.186c0-1.731-0.584-2.596-1.752-2.596-1.338 0-2.57 1.404-3.694 4.211-0.956 2.383-1.434 4.378-1.434 5.981 0 1.837 0.625 2.753 1.879 2.753 1.316 0 2.527-1.423 3.631-4.273 0.913-2.406 1.37-4.431 1.37-6.077zM108.172 13.864c0 2.195-0.657 4.273-1.975 6.235-1.485 2.216-3.281 3.324-5.382 3.324-1.38 0-2.442-0.549-3.186-1.646-0.68-0.95-1.019-2.131-1.019-3.546 0-2.172 0.669-4.262 2.007-6.267 1.508-2.236 3.302-3.354 5.382-3.354 1.381 0 2.442 0.548 3.187 1.645 0.658 0.972 0.986 2.173 0.986 3.61zM121.071 10.35c0 0.38-0.113 0.727-0.335 1.044-0.223 0.316-0.516 0.474-0.877 0.474-0.36 0-0.636-0.22-0.828-0.663s-0.445-0.666-0.763-0.666c-1.169 0-3.081 4.157-5.734 12.471h-2.484c0.637-2.131 1.274-4.273 1.911-6.426 0.998-3.397 1.498-5.307 1.498-5.729 0-0.358-0.16-0.538-0.477-0.538-0.575 0-1.116 0.348-1.626 1.044-0.17 0.211-0.509 0.791-1.019 1.741-0.128 0.253-0.307 0.38-0.541 0.38-0.32 0-0.477-0.128-0.477-0.38l0.031-0.128c0.276-1.053 0.818-2.013 1.626-2.879 0.911-0.95 1.879-1.425 2.898-1.425 1.125 0 1.688 0.644 1.688 1.932 0 0.401-0.074 0.896-0.223 1.487-0.15 0.506-0.287 1.002-0.415 1.487 1.613-3.27 3.132-4.906 4.554-4.906 0.468 0 0.851 0.164 1.148 0.492 0.297 0.326 0.447 0.722 0.447 1.187zM150.153 22.63c-0.020 0.255-0.191 0.381-0.509 0.381h-8.41c-0.319 0-0.489-0.128-0.509-0.38-0.022-0.211 0.223-0.38 0.732-0.507 0.87-0.253 1.327-0.39 1.37-0.411 0.701-0.296 1.051-1.434 1.051-3.419v-14.939l-8.219 19.244c-0.189 0.443-0.339 0.666-0.445 0.666s-0.285-0.285-0.541-0.855l-7.072-16.143c-0.368-0.849-0.751-1.566-1.185-2.248l0.038 0.065 0.192 14.212c0.020 1.012 0.064 1.699 0.128 2.058 0.147 0.695 0.456 1.149 0.924 1.361 0.041 0.020 0.498 0.157 1.368 0.411 0.509 0.128 0.754 0.296 0.733 0.507-0.022 0.253-0.191 0.38-0.511 0.38h-6.816c-0.319 0-0.489-0.128-0.509-0.38-0.022-0.211 0.223-0.38 0.732-0.507 0.87-0.253 1.327-0.39 1.37-0.411 0.467-0.211 0.776-0.686 0.923-1.425 0.086-0.358 0.128-1.024 0.128-1.994l0.16-15.572c-0.34-0.274-0.84-0.549-1.498-0.823-0.64-0.17-1.097-0.311-1.548-0.465l0.178 0.053c-0.511-0.125-0.754-0.294-0.732-0.506 0.020-0.253 0.191-0.38 0.509-0.38h3.822c1.444 0.022 2.272 0.090 2.484 0.205 0.211 0.118 0.531 0.671 0.956 1.664l6.785 15.793 7.327-17.187c0.127-0.316 0.413-0.474 0.859-0.474h5.225c0.319 0 0.489 0.125 0.509 0.379 0.020 0.211-0.223 0.38-0.732 0.506-0.872 0.253-1.327 0.392-1.37 0.412-0.701 0.296-1.052 1.436-1.052 3.418v12.978c0 1.984 0.351 3.123 1.052 3.418 0.042 0.022 0.498 0.159 1.37 0.412 0.509 0.128 0.753 0.296 0.732 0.507zM162.322 16.157c0-1.755-0.288-3.192-0.861-4.315-0.742-1.459-1.901-2.189-3.471-2.189-1.572 0-2.729 0.751-3.471 2.253-0.573 1.121-0.86 2.548-0.86 4.284 0 1.691 0.287 3.098 0.86 4.219 0.764 1.439 1.921 2.158 3.471 2.158 1.571 0 2.729-0.719 3.471-2.158 0.573-1.12 0.861-2.538 0.861-4.252zM165.379 15.968c0 2.157-0.7 3.955-2.102 5.393-1.402 1.439-3.186 2.157-5.352 2.157s-3.918-0.677-5.254-2.030c-1.34-1.354-2.008-3.119-2.008-5.297 0-2.157 0.701-3.933 2.103-5.33 1.4-1.395 3.186-2.093 5.352-2.093 2.058 0 3.785 0.687 5.176 2.061 1.39 1.375 2.085 3.087 2.085 5.139zM192.87 22.632c-0.022 0.253-0.192 0.379-0.511 0.379h-6.88c-0.319 0-0.489-0.125-0.509-0.379-0.020-0.168 0.223-0.315 0.732-0.443 0.658-0.147 1.12-0.31 1.386-0.488 0.265-0.179 0.398-1.311 0.398-3.395v-4.105c0-1.284-0.159-2.221-0.477-2.81-0.425-0.8-1.243-1.201-2.454-1.201-1.019 0-1.891 0.311-2.611 0.932-0.723 0.622-1.083 1.384-1.083 2.29v4.893c0.020 1.262 0.031 1.957 0.031 2.084 0.044 0.758 0.17 1.199 0.383 1.326 0.211 0.127 0.669 0.273 1.37 0.442 0.509 0.127 0.753 0.284 0.733 0.474-0.022 0.253-0.192 0.379-0.509 0.379h-6.881c-0.319 0-0.489-0.125-0.509-0.379-0.022-0.168 0.223-0.315 0.732-0.443 0.658-0.147 1.119-0.31 1.386-0.488 0.265-0.179 0.398-1.311 0.398-3.395v-4.105c0-1.284-0.159-2.221-0.479-2.81-0.424-0.8-1.242-1.201-2.452-1.201-1.020 0-1.889 0.311-2.611 0.932-0.722 0.622-1.083 1.384-1.083 2.29v4.893c0 2.125 0.137 3.263 0.413 3.41 0.148 0.084 0.604 0.221 1.37 0.41 0.509 0.147 0.754 0.316 0.733 0.506-0.023 0.253-0.192 0.379-0.509 0.379h-6.881c-0.319 0-0.489-0.127-0.509-0.38-0.022-0.168 0.233-0.305 0.763-0.411 0.659-0.128 1.116-0.301 1.371-0.522s0.383-1.357 0.383-3.404v-6.044c0-0.571-0.052-0.945-0.16-1.124-0.106-0.179-0.425-0.269-0.956-0.269-0.806 0-1.21-0.128-1.21-0.38 0-0.274 0.253-0.465 0.763-0.57 1.23-0.253 2.44-0.602 3.626-1.046 0.192-0.041 0.319-0.063 0.383-0.063 0.191 0 0.307 0.138 0.351 0.412 0.019 0.189 0.041 0.728 0.063 1.613 0.466-0.602 1.149-1.088 2.052-1.463 0.821-0.355 1.778-0.561 2.782-0.562h0c2.207 0 3.585 0.813 4.137 2.438 1.272-1.626 3.053-2.438 5.344-2.438 1.74 0 2.938 0.474 3.596 1.421 0.721 1.033 1.080 2.653 1.080 4.864v3.222c0 1.199 0.012 1.894 0.032 2.084 0.044 0.759 0.17 1.201 0.383 1.327 0.212 0.125 0.669 0.273 1.371 0.442 0.508 0.127 0.753 0.284 0.732 0.474zM195.718 21.203c-0.069-0.023-0.148-0.036-0.23-0.036-0.010 0-0.021 0-0.031 0.001l0.001-0h-0.109v0.494h0.175c0.006 0 0.014 0.001 0.022 0.001 0.082 0 0.159-0.024 0.223-0.066l-0.002 0.001c0.059-0.041 0.088-0.109 0.088-0.201s-0.046-0.157-0.138-0.192zM194.903 22.566v-1.697h0.475c0.212 0 0.329 0.003 0.353 0.004 0.134 0.009 0.247 0.038 0.337 0.087 0.152 0.083 0.228 0.218 0.228 0.406 0 0.142-0.040 0.246-0.12 0.307-0.082 0.064-0.183 0.105-0.294 0.115l-0.002 0c0.092 0.015 0.174 0.049 0.244 0.1l-0.002-0.001c0.101 0.081 0.151 0.207 0.151 0.381v0.151c0 0.036 0.006 0.070 0.017 0.102l-0.001-0.002 0.015 0.047h-0.428c-0.016-0.069-0.026-0.15-0.028-0.233l-0-0.002c0-0.002 0-0.004 0-0.006 0-0.072-0.010-0.141-0.030-0.206l0.001 0.005c-0.021-0.059-0.067-0.104-0.124-0.125l-0.001-0c-0.045-0.016-0.097-0.026-0.152-0.027h-0l-0.099-0.006h-0.095v0.602h-0.447zM194.673 20.827c-0.228 0.222-0.369 0.532-0.369 0.874 0 0.004 0 0.009 0 0.013v-0.001c0 0.356 0.125 0.657 0.375 0.905 0.248 0.248 0.548 0.371 0.9 0.371 0.005 0 0.012 0 0.018 0 0.345 0 0.657-0.143 0.879-0.374l0-0c0.23-0.225 0.373-0.538 0.373-0.885 0-0.006-0-0.012-0-0.018v0.001c0-0.003 0-0.006 0-0.010 0-0.344-0.142-0.655-0.371-0.877l-0-0c-0.222-0.236-0.536-0.383-0.885-0.383-0.005 0-0.010 0-0.015 0h0.001c-0.355 0-0.657 0.128-0.906 0.384zM196.658 22.813c-0.271 0.268-0.643 0.433-1.054 0.433-0.009 0-0.017-0-0.026-0l0.001 0c-0.010 0-0.022 0-0.033 0-0.416 0-0.792-0.169-1.063-0.443l-0-0c-0.275-0.268-0.446-0.642-0.446-1.056 0-0.011 0-0.022 0-0.033l-0 0.002c0-0.448 0.161-0.82 0.481-1.116 0.301-0.278 0.655-0.416 1.061-0.416 0.425 0 0.788 0.148 1.089 0.448s0.452 0.662 0.452 1.083c0 0.435-0.154 0.801-0.462 1.101z"></path>
</symbol>
<symbol id="icon-ex4" viewBox="0 0 32 32">
<path fill="#8491a0" style="fill: var(--color4, #8491a0)" d="M29.696 0h-14.232c-8.538 0-15.464 5.947-15.464 14.487v10.042c6.234-12.747 21.387-21.701 29.696-24.529z"></path>
<path fill="#8491a0" style="fill: var(--color4, #8491a0)" d="M1.524 32h12.613c8.541 0 15.465-6.924 15.465-15.465v-15.796c-13.166 7.311-22.176 18.691-28.078 31.261z"></path>
</symbol>
<symbol id="icon-ex3" viewBox="0 0 31 32">
<path fill="#8491a0" style="fill: var(--color4, #8491a0)" d="M29.546 0h-29.177c-0.203 0-0.368 0.165-0.368 0.369 0 0.157 0.099 0.292 0.237 0.345l0.003 0.001 26.39 8.64c0.013 0.004 0.028 0.007 0.043 0.007 0.051 0 0.096-0.028 0.119-0.070l0-0.001 3.937-7.305c0.102-0.185 0.161-0.405 0.161-0.639 0-0.743-0.602-1.346-1.345-1.346h-0zM0.007 30.541c0 0 0 0 0 0 0 0.197 0.16 0.356 0.356 0.356 0.135 0 0.252-0.075 0.312-0.185l0.001-0.002 5.076-9.404c0.232-0.424 0.675-0.706 1.184-0.706 0 0 0.001 0 0.001 0h12.951c0.51-0 0.953-0.284 1.182-0.701l0.004-0.007 3.87-7.175c0.008-0.015 0.013-0.032 0.013-0.051 0-0.020-0.006-0.039-0.015-0.055l0 0.001c-0.019-0.031-0.053-0.052-0.092-0.052-0 0-0.001 0-0.001 0h-23.496c-0.744 0-1.346 0.603-1.346 1.346v16.634z"></path>
</symbol>
<symbol id="icon-ex2" viewBox="0 0 78 32">
<path fill="#8491a0" style="fill: var(--color4, #8491a0)" d="M21.53 15.556c-1.527 4.65-5.265 7.271-10.318 7.271-6.285 0-11.212-4.988-11.212-11.371 0-6.298 4.927-11.456 10.999-11.456 5.647 0 11.084 4.651 11.042 12.386h-18.389c0.467 4.524 3.95 7.187 7.559 7.187 3.101 0 5.309-1.48 6.499-4.017h3.82zM18.049 9.173c-0.89-3.551-3.864-5.918-7.050-5.918-3.015 0-6.2 2.199-7.134 5.918h14.184zM34.739 22.827c-3.143 0-5.862-1.69-7.432-3.805v12.978h-3.61v-31.45h3.482v3.467c1.529-2.198 4.331-4.017 7.559-4.017 6.285 0 10.915 5.116 10.915 11.372 0 6.34-4.63 11.454-10.914 11.454zM34.739 3.298c-4.035 0-7.432 3.635-7.432 8.074 0 4.48 3.396 8.158 7.432 8.158 4.076 0 7.305-3.678 7.305-8.158 0-4.439-3.229-8.074-7.305-8.074zM47.224 0.551h3.609v21.769h-3.609v-21.77zM52.446 11.469c0-6.353 5.181-11.463 11.738-11.463 6.56 0 11.741 5.109 11.741 11.463 0 6.353-5.228 11.369-11.741 11.369-6.51 0-11.738-5.016-11.738-11.369zM65.176 3.475c-5.976-0.52-9.3 4.009-9.3 9.284 0 5.274 4.369 9.553 9.754 9.553 0.005 0 0.012 0 0.018 0 2.103 0 4.051-0.658 5.652-1.779l-0.032 0.021-1.352-3.427c1.397-1.448 2.205-3.45 2.205-5.662 0-4.373-3.068-7.627-6.946-7.99z"></path>
<path fill="#8491a0" style="fill: var(--color4, #8491a0)" d="M62.029 13.657l10.648 8.625h5.667l-10.375-8.626z"></path>
</symbol>
<symbol id="icon-ex1" viewBox="0 0 130 32">
<path fill="#8491a0" style="fill: var(--color4, #8491a0)" d="M58.885 15.477c4.093-1.35 4.837-4.766 4.826-7.549-0.008-4.25-3.026-7.925-11.959-7.925l-16.675-0.003v31.934h16.632c8.986 0 12.293-4.587 12.293-9.181 0-5.562-5.117-7.276-5.117-7.276zM42.991 6.949l11.266 0.009c1.268 0.222 2.19 1.294 2.19 2.551 0 1.285-0.989 2.496-2.295 2.673l-11.154 0.015-0.008-5.248zM53.676 24.494h-10.686v-5.347l10.974 0.003c1.361 0.155 2.392 1.28 2.392 2.619 0 1.457-1.219 2.702-2.68 2.725zM101.339 0.005h28.177l-0.015 6.97h-20.332l0.018 5.147h18.331v7.005h-18.331v5.57h20.337l-0.005 7.304h-28.18v-31.995zM84.949 0.046h-17.039v31.945h7.825v-12.925l8.617-0.009c2.469 0.037 4.389 2.046 4.389 4.526v8.381l7.659-0.003-0.015-10.31c0-4.777-4.642-6.187-4.642-6.187s4.745-1.413 4.745-7.058c0-6.909-5.973-8.36-11.538-8.36zM89.221 9.957c-0.14 1.051-1.196 2.19-2.514 2.19l-10.997 0.005v-5.115h11.002c1.314 0 2.344 0.962 2.51 2.225v0.696zM30.004 24.271c-0.113 0.003-10.697 0.206-14.35-0.148-5.885-0.573-7.97-4.907-7.97-8.442 0-4.41 3.025-7.656 7.71-8.265 2.228-0.29 14.415-0.152 14.543-0.152l0.256 0.005 0.026-7.266-0.259 0.002-13.794 0.026c-1.534 0.091-4.081 0.247-6.688 1.306-2.55 1.177-4.671 2.901-6.282 5.032l-0.030 0.041c-1.978 2.611-3.168 5.913-3.168 9.493 0 0.010 0 0.020 0 0.029v-0.002c0 1.086 0.087 2.164 0.264 3.2 0.992 4.843 4.186 8.85 8.766 11.006 1.547 0.677 3.931 1.489 8.742 1.755l2.59 0.055 9.871 0.009 0.026-7.688-0.256 0.003z"></path>
</symbol>
<symbol id="icon-skill4" viewBox="0 0 32 32">
<path fill="#5221e6" style="fill: var(--color5, #5221e6)" d="M29.828 8.236h-2.928l-0.673-3.036c-0.283-1.267-1.398-2.2-2.731-2.2-0.005 0-0.011 0-0.016 0h-10.164c-1.33 0-2.459 0.905-2.746 2.201l-0.673 3.035h-0.694v-1.296c0-0.73-0.595-1.323-1.326-1.323h-4.286c-0.73 0-1.325 0.593-1.325 1.323v1.295h-0.094c-1.198 0.001-2.17 0.971-2.172 2.169v14.688c0 1.196 0.975 2.169 2.172 2.169h10.075c1.733 1.137 3.856 1.813 6.137 1.813 0.005 0 0.011 0 0.016 0h-0.001c2.265 0 4.378-0.667 6.151-1.814h5.278c1.198-0.001 2.169-0.97 2.172-2.167v-14.689c-0.003-1.198-0.974-2.167-2.172-2.168h-0zM11.79 5.47c0.16-0.72 0.788-1.223 1.526-1.223h10.165c0.739 0 1.366 0.503 1.526 1.223l0.613 2.765h-1.070c-1.733-1.137-3.857-1.814-6.138-1.814-0.004 0-0.009 0-0.013 0h0.001c-2.266 0-4.379 0.667-6.152 1.814h-1.070l0.613-2.765zM3.516 6.94c0-0.042 0.034-0.075 0.075-0.075h4.286c0.042 0 0.076 0.033 0.076 0.075v1.295h-4.437v-1.295zM5.019 26.012v-6.777c0-0.345-0.28-0.625-0.625-0.625s-0.625 0.28-0.625 0.625v0 6.777h-1.597c-0.509-0.001-0.921-0.412-0.922-0.921v-14.687c0-0.508 0.414-0.92 0.922-0.92h8.477c-2.215 2.066-3.596 5.002-3.596 8.261 0 0.001 0 0.002 0 0.003v-0c0 3.257 1.385 6.197 3.597 8.265h-5.63zM24.169 26.012c-1.609 1.135-3.61 1.814-5.771 1.814s-4.162-0.679-5.802-1.836l0.032 0.021c-2.613-1.824-4.325-4.848-4.325-8.265s1.712-6.441 4.325-8.264c1.609-1.136 3.61-1.815 5.771-1.815s4.162 0.679 5.802 1.836l-0.032-0.021c2.613 1.823 4.325 4.847 4.325 8.264s-1.712 6.441-4.325 8.265zM30.75 25.091c0 0.508-0.414 0.92-0.922 0.92h-3.68c2.215-2.066 3.596-5.002 3.596-8.261 0-0.001 0-0.002 0-0.003v0c0-3.257-1.385-6.197-3.596-8.265h3.68c0.508 0 0.922 0.413 0.922 0.921v14.688z"></path>
<path fill="#5221e6" style="fill: var(--color5, #5221e6)" d="M18.37 10.111c-4.247 0-7.703 3.456-7.703 7.704s3.456 7.703 7.704 7.703c0.618 0 1.234-0.073 1.83-0.219 0.27-0.056 0.47-0.292 0.47-0.575 0-0.324-0.263-0.587-0.587-0.587-0.057 0-0.112 0.008-0.164 0.023l0.004-0.001c-0.464 0.118-0.997 0.185-1.545 0.185-3.608 0-6.534-2.923-6.538-6.53v-0c0-3.6 2.929-6.53 6.53-6.53 3.6 0 6.53 2.93 6.53 6.53 0 0.004 0 0.008 0 0.012 0 1.362-0.419 2.626-1.135 3.67l0.014-0.022c-0.058 0.089-0.092 0.198-0.092 0.315 0 0.324 0.263 0.587 0.587 0.587 0.195 0 0.368-0.095 0.475-0.242l0.001-0.002c0.828-1.206 1.323-2.698 1.323-4.305 0-0.005 0-0.009 0-0.014v0.001c0-4.248-3.456-7.704-7.704-7.704zM4.74 11.296c-1.308 0.002-2.368 1.062-2.37 2.37v0c0.001 1.309 1.061 2.369 2.37 2.371h0c1.309-0.001 2.369-1.061 2.371-2.37v-0c-0.002-1.308-1.062-2.368-2.37-2.37h-0zM4.74 14.764c-0.586-0.026-1.051-0.507-1.051-1.097s0.465-1.071 1.049-1.097l0.002-0c0.606 0 1.098 0.492 1.098 1.097s-0.492 1.097-1.097 1.097z"></path>
<path fill="#5221e6" style="fill: var(--color5, #5221e6)" d="M23.692 23.625c-0.017-0.081-0.048-0.152-0.089-0.215l0.001 0.002c-0.043-0.066-0.097-0.121-0.161-0.163l-0.002-0.001c-0.061-0.040-0.133-0.071-0.21-0.087l-0.004-0.001c-0.035-0.008-0.076-0.012-0.118-0.012-0.204 0-0.384 0.104-0.489 0.262l-0.001 0.002c-0.062 0.093-0.099 0.206-0.1 0.329v0c0 0.001 0 0.001 0 0.002 0 0.122 0.037 0.235 0.101 0.329l-0.001-0.002c0.085 0.13 0.218 0.222 0.373 0.251l0.004 0.001c0.035 0.008 0.076 0.012 0.118 0.012 0.163 0 0.311-0.067 0.417-0.174l0-0c0.107-0.108 0.173-0.256 0.173-0.42 0-0.041-0.004-0.080-0.012-0.119l0.001 0.004z"></path>
</symbol>
<symbol id="icon-skill3" viewBox="0 0 32 32">
<path fill="none" stroke="#5221e6" style="stroke: var(--color5, #5221e6)" stroke-linejoin="miter" stroke-linecap="butt" stroke-miterlimit="4" stroke-width="2" d="M31 16c0 8.284-6.716 15-15 15s-15-6.716-15-15c0-8.284 6.716-15 15-15s15 6.716 15 15z"></path>
<path fill="#5221e6" style="fill: var(--color5, #5221e6)" d="M21 16l-7.5 4.33v-8.66l7.5 4.33z"></path>
</symbol>
<symbol id="icon-skill2" viewBox="0 0 32 32">
<path fill="#5221e6" style="fill: var(--color5, #5221e6)" d="M23.673 1.97c-0.567-0.567-1.351-0.918-2.216-0.918-0.446 0-0.871 0.093-1.255 0.261l0.020-0.008-11.598 4.972c-1.369 0.595-2.413 1.722-2.884 3.113l-0.011 0.037c-0.1-0.24-1.35 3.588-2.562 7.432l-1.106 4.070c-0.206 0.491-0.701 2.151-1.171 3.821l-0.276 1.15c-0.182 0.678-0.332 1.275-0.437 1.756-0.097 0.448-0.177 0.89-0.177 1.207v0.433l2.7 2.7h0.433c0.318 0 0.759-0.080 1.207-0.177 0.858-0.188 1.448-0.339 2.032-0.503l-0.275 0.066c1.36-0.366 3.089-0.874 4.971-1.446 7.924-2.322 11.751-3.573 15.561-4.863l-4.058 1.193c1.428-0.481 2.555-1.525 3.138-2.86l0.013-0.034 4.97-11.599c0.16-0.364 0.253-0.788 0.253-1.234 0-0.865-0.351-1.649-0.918-2.216l-6.354-6.356zM21.045 3.226c0.121-0.053 0.262-0.084 0.411-0.084 0.288 0 0.549 0.117 0.739 0.306l6.356 6.356c0.189 0.189 0.306 0.45 0.306 0.739 0 0.149-0.031 0.291-0.087 0.419l0.003-0.007-4.97 11.598c-0.356 0.82-1.030 1.445-1.862 1.728l-0.022 0.006c0.241 0.099-3.571 1.345-7.401 2.552l-4.057 1.103c-1.873 0.57-3.578 1.071-4.903 1.426-0.665 0.178-1.223 0.318-1.658 0.412l-0.255 0.053 10.673-10.672c0.395 0.193 0.86 0.306 1.352 0.306 1.731 0 3.135-1.403 3.135-3.135s-1.403-3.135-3.135-3.135c-1.731 0-3.135 1.403-3.135 3.135 0 0.491 0.113 0.956 0.315 1.37l-0.008-0.019-10.673 10.671 0.053-0.254c0.095-0.434 0.234-0.994 0.412-1.658 0.357-1.327 0.857-3.030 1.428-4.903 2.309-7.881 3.555-11.693 4.84-15.488l-1.185 4.030c0.289-0.854 0.914-1.527 1.713-1.875l0.020-0.008 11.598-4.972z"></path>
</symbol>
<symbol id="icon-skill1" viewBox="0 0 26 32">
<path fill="#5221e6" style="fill: var(--color5, #5221e6)" d="M24.12 23.112v7.11h-9.932v-7.111h9.932zM24.12 1.778v14.222h-9.932v-14.222h9.932zM8.513 16h-7.094v14.222h7.094v-14.222zM8.513 1.778v7.11h-7.094v-7.11h7.094zM14.188 0c-0.784 0-1.419 0.796-1.419 1.778v14.222c0 0.982 0.635 1.778 1.419 1.778h9.932c0.783 0 1.418-0.796 1.418-1.778v-14.222c0-0.982-0.635-1.778-1.418-1.778h-9.932zM14.188 21.333c-0.784 0-1.419 0.796-1.419 1.778v7.111c0 0.982 0.635 1.778 1.419 1.778h9.932c0.783 0 1.418-0.796 1.418-1.778v-7.11c0-0.983-0.635-1.779-1.418-1.779h-9.932zM0 16c0-0.982 0.635-1.778 1.419-1.778h7.094c0.783 0 1.419 0.796 1.419 1.778v14.222c0 0.982-0.636 1.778-1.42 1.778h-7.092c-0.785 0-1.42-0.796-1.42-1.778v-14.222zM1.419 0c-0.784 0-1.419 0.796-1.419 1.778v7.11c0 0.983 0.635 1.779 1.419 1.779h7.094c0.783 0 1.419-0.796 1.419-1.778v-7.111c0-0.982-0.636-1.778-1.42-1.778h-7.092z"></path>
</symbol>
<symbol id="icon-mobmenu" viewBox="0 0 32 32">
<path fill="#000" style="fill: var(--color6, #000)" d="M0 0h32v32h-32z"></path>
<path fill="#c4c4c4" style="fill: var(--color7, #c4c4c4)" d="M4 8h24v4h-24zM10.667 18.667h17.333v4h-17.333z"></path>
</symbol>
</defs>
</svg>
